<svg width="602" height="666" viewBox="0 0 602 666" fill="none" xmlns="http://www.w3.org/2000/svg">
<path d="M478.645 175.65L602 53.3471L583.001 34.5106L459.646 156.814C438.428 177.85 413.746 194.111 386.9 205.166C374.883 210.103 362.434 213.967 349.66 216.704C327.36 182.144 314.423 141.09 314.423 97.1379V0H287.577V97.1379C287.577 119.141 284.329 140.392 278.321 160.463C272.313 180.534 263.49 199.424 252.34 216.704C210.987 207.742 172.99 187.188 142.354 156.76L123.355 175.596C154.641 206.615 174.776 244.664 183.653 284.698C148.795 306.754 107.496 319.58 63.1662 319.58V346.252C107.496 346.252 148.795 359.078 183.653 381.134C174.776 421.168 154.695 459.163 123.355 490.235L0 612.538L18.9444 631.375L142.3 509.072C152.855 498.554 164.329 489.216 176.562 481.166C188.741 473.063 201.677 466.247 215.101 460.72C227.117 455.782 239.566 451.918 252.394 449.182C274.64 483.742 287.577 524.742 287.577 568.748V666H314.423V568.748C314.423 546.745 317.671 525.493 323.679 505.423C329.687 485.352 338.51 466.462 349.66 449.182C391.013 458.144 429.01 478.644 459.7 509.072L469.172 499.627L478.645 490.235C447.305 459.163 427.224 421.168 418.347 381.134C453.151 359.078 494.504 346.252 538.78 346.252V319.58C494.504 319.58 453.151 306.754 418.347 284.698C427.224 244.717 447.359 206.669 478.645 175.65ZM411.744 223.197C404.653 237.58 399.024 252.445 394.91 267.686C384.789 259.26 375.37 249.976 366.927 239.941C382.407 235.809 397.4 230.228 411.744 223.197ZM235.073 239.941C226.63 249.976 217.266 259.26 207.09 267.632C202.976 252.445 197.347 237.526 190.256 223.197C204.6 230.228 219.593 235.809 235.073 239.941ZM190.256 442.634C197.347 428.306 202.976 413.441 207.09 398.2C217.266 406.571 226.63 415.909 235.128 425.944C219.647 430.077 204.654 435.658 190.256 442.634ZM366.872 425.944C375.37 415.909 384.734 406.571 394.91 398.146C399.024 413.387 404.653 428.306 411.744 442.634C397.346 435.658 382.353 430.077 366.872 425.944ZM457.698 332.943C442.38 338.148 427.765 344.749 413.963 352.638C409.579 355.107 405.303 357.736 401.135 360.473C396.913 363.156 392.853 366.001 388.848 369.006C369.362 383.388 352.042 400.561 337.536 419.88C334.45 423.905 331.582 427.984 328.821 432.17C326.061 436.248 323.463 440.488 320.973 444.781C312.962 458.519 306.25 473.063 301 488.303C295.75 473.063 289.038 458.519 281.027 444.781C278.537 440.488 275.939 436.248 273.179 432.17C270.418 427.984 267.55 423.905 264.518 419.88C249.958 400.561 232.638 383.388 213.152 369.006C209.147 366.001 205.087 363.156 200.865 360.473C196.697 357.736 192.421 355.107 188.037 352.638C174.235 344.749 159.566 338.148 144.248 332.943C159.566 327.737 174.235 321.136 188.037 313.248C192.421 310.779 196.697 308.149 200.865 305.413C205.087 302.676 209.147 299.831 213.152 296.826C232.638 282.444 249.958 265.271 264.518 245.952C267.55 241.927 270.472 237.848 273.179 233.662C275.939 229.584 278.537 225.398 281.027 221.105C289.038 207.366 295.75 192.769 301 177.528C306.25 192.769 312.962 207.366 320.973 221.105C323.463 225.398 326.061 229.584 328.821 233.662C331.582 237.848 334.45 241.98 337.536 246.005C352.042 265.325 369.362 282.497 388.848 296.826C392.853 299.831 396.913 302.676 401.135 305.413C405.303 308.149 409.579 310.779 413.963 313.248C427.765 321.136 442.38 327.737 457.698 332.943Z" fill="#F6FAF2" style="fill:#F6FAF2;fill:color(display-p3 0.9647 0.9804 0.9490);fill-opacity:1;"/>
</svg>
